<?xml version="1.0" standalone="no"?>
<!DOCTYPE svg PUBLIC "-//W3C//DTD SVG 20010904//EN"
 "http://www.w3.org/TR/2001/REC-SVG-20010904/DTD/svg10.dtd">
<svg version="1.0" xmlns="http://www.w3.org/2000/svg"
 width="192.000000pt" height="192.000000pt" viewBox="0 0 192.000000 192.000000"
 preserveAspectRatio="xMidYMid meet">

<g transform="translate(0.000000,192.000000) scale(0.100000,-0.100000)"
fill="#000000" stroke="none">
<path d="M847 1349 c-61 -79 -106 -148 -103 -155 8 -21 25 -17 19 5 -7 27 170
255 198 255 13 0 48 -37 109 -118 50 -65 90 -122 90 -126 0 -4 -7 -13 -15 -20
-20 -17 -19 -31 3 -23 14 5 15 3 5 -8 -15 -15 -17 -29 -4 -29 5 0 12 11 15 24
3 13 8 31 11 38 5 13 -195 289 -214 296 -3 1 -55 -61 -114 -139z"/>
<path d="M951 1360 c0 -30 4 -73 8 -95 8 -35 9 -31 9 35 0 41 -3 84 -8 95 -6
14 -9 5 -9 -35z"/>
<path d="M953 1153 c1 -29 4 -53 9 -53 10 0 9 45 -1 80 -6 18 -8 11 -8 -27z"/>
<path d="M1045 1099 c-33 -32 -56 -59 -51 -59 13 0 100 82 108 102 4 10 6 18
5 17 -1 0 -29 -27 -62 -60z"/>
<path d="M840 1116 c0 -2 8 -10 18 -17 15 -13 16 -12 3 4 -13 16 -21 21 -21
13z"/>
<path d="M1107 1106 c-11 -27 -8 -36 8 -36 16 0 17 5 6 34 -7 18 -8 18 -14 2z"/>
<path d="M240 1095 c0 -8 6 -15 12 -15 7 0 66 -53 130 -117 65 -65 118 -113
118 -108 0 6 -52 62 -115 125 -94 93 -112 116 -98 122 13 5 8 7 -14 7 -23 1
-33 -4 -33 -14z"/>
<path d="M1639 1103 c9 -4 -38 -57 -135 -154 -132 -132 -149 -146 -160 -131
-12 15 -13 14 -14 -12 0 -16 -7 -38 -17 -48 -9 -10 -11 -18 -5 -18 6 0 18 10
26 22 9 12 16 17 16 10 0 -6 5 -12 10 -12 6 0 10 8 10 18 0 20 271 295 295
300 27 6 17 32 -12 31 -16 0 -22 -3 -14 -6z"/>
<path d="M328 1093 c12 -2 30 -2 40 0 9 3 -1 5 -23 4 -22 0 -30 -2 -17 -4z"/>
<path d="M1563 1093 c9 -2 23 -2 30 0 6 3 -1 5 -18 5 -16 0 -22 -2 -12 -5z"/>
<path d="M413 1083 c9 -2 23 -2 30 0 6 3 -1 5 -18 5 -16 0 -22 -2 -12 -5z"/>
<path d="M1488 1083 c6 -2 18 -2 25 0 6 3 1 5 -13 5 -14 0 -19 -2 -12 -5z"/>
<path d="M473 1073 c9 -2 25 -2 35 0 9 3 1 5 -18 5 -19 0 -27 -2 -17 -5z"/>
<path d="M1403 1073 c9 -2 25 -2 35 0 9 3 1 5 -18 5 -19 0 -27 -2 -17 -5z"/>
<path d="M252 1040 c0 -19 2 -27 5 -17 2 9 2 25 0 35 -3 9 -5 1 -5 -18z"/>
<path d="M564 1063 l29 -5 -6 -105 c-3 -58 -3 -102 1 -99 4 4 9 46 12 94 l5
87 57 -110 c31 -60 57 -107 57 -102 1 4 -26 61 -59 127 -59 118 -61 120 -93
119 -32 -2 -32 -2 -3 -6z"/>
<path d="M1255 940 c-37 -71 -71 -130 -76 -130 -5 0 -9 -7 -9 -15 0 -35 19 -8
80 113 l65 127 6 -65 6 -65 1 77 c2 75 2 77 30 81 25 4 25 4 -5 6 -32 1 -34
-2 -98 -129z"/>
<path d="M1662 1040 c0 -19 2 -27 5 -17 2 9 2 25 0 35 -3 9 -5 1 -5 -18z"/>
<path d="M1097 1054 c15 -7 9 -44 -24 -147 -14 -43 -23 -80 -21 -82 2 -3 15
28 27 68 13 39 32 91 42 114 24 53 24 53 -8 52 -16 0 -23 -3 -16 -5z"/>
<path d="M950 995 c0 -14 5 -25 10 -25 6 0 10 11 10 25 0 14 -4 25 -10 25 -5
0 -10 -11 -10 -25z"/>
<path d="M844 881 c22 -72 42 -128 45 -125 6 6 -72 254 -80 254 -3 0 12 -58
35 -129z"/>
<path d="M263 965 c0 -22 2 -30 4 -17 2 12 2 30 0 40 -3 9 -5 -1 -4 -23z"/>
<path d="M1653 965 c0 -22 2 -30 4 -17 2 12 2 30 0 40 -3 9 -5 -1 -4 -23z"/>
<path d="M951 883 c2 -116 16 -140 18 -30 1 59 -3 97 -9 97 -6 0 -10 -28 -9
-67z"/>
<path d="M272 890 c0 -19 2 -27 5 -17 2 9 2 25 0 35 -3 9 -5 1 -5 -18z"/>
<path d="M1642 895 c0 -16 2 -22 5 -12 2 9 2 23 0 30 -3 6 -5 -1 -5 -18z"/>
<path d="M1327 885 c-4 -8 -2 -17 3 -20 6 -4 10 3 10 14 0 25 -6 27 -13 6z"/>
<path d="M281 825 c-1 -47 9 -72 35 -84 14 -6 23 -7 20 -2 -4 5 0 12 6 14 7 3
1 6 -14 6 -28 1 -31 7 -41 71 -4 22 -4 21 -6 -5z"/>
<path d="M1633 815 c0 -22 2 -30 4 -17 2 12 2 30 0 40 -3 9 -5 -1 -4 -23z"/>
<path d="M510 826 c0 -2 7 -7 16 -10 8 -3 12 -2 9 4 -6 10 -25 14 -25 6z"/>
<path d="M398 763 c17 -2 47 -2 65 0 17 2 3 4 -33 4 -36 0 -50 -2 -32 -4z"/>
<path d="M1453 764 c7 -8 87 -7 95 0 3 3 -19 6 -48 6 -29 0 -51 -3 -47 -6z"/>
<path d="M1590 760 c-19 -4 -27 -8 -17 -9 10 0 15 -6 12 -11 -4 -6 5 -5 19 2
14 6 26 15 26 20 0 4 -1 7 -2 7 -2 -1 -19 -5 -38 -9z"/>
<path d="M1023 743 c-5 -10 -18 -46 -28 -80 -24 -84 -45 -85 -70 -3 -10 33
-20 58 -22 56 -6 -6 48 -176 56 -176 7 0 81 213 76 218 -2 2 -7 -5 -12 -15z"/>
<path d="M740 605 c120 -120 147 -145 119 -107 -27 36 -224 232 -234 232 -5 0
46 -56 115 -125z"/>
<path d="M953 715 c0 -8 4 -12 9 -9 4 3 8 9 8 15 0 5 -4 9 -8 9 -5 0 -9 -7 -9
-15z"/>
<path d="M1072 585 c-39 -78 -72 -146 -72 -149 0 -3 32 10 70 29 39 19 70 38
70 40 0 3 -18 -4 -39 -15 -75 -38 -77 -21 -10 112 33 66 59 122 57 123 -2 2
-36 -61 -76 -140z"/>
<path d="M1167 612 c-64 -66 -117 -123 -117 -128 0 -5 56 47 125 116 69 69
125 126 125 127 0 14 -34 -15 -133 -115z"/>
<path d="M1398 646 c-87 -45 -161 -86 -165 -90 -4 -5 70 31 165 78 152 76 191
99 165 95 -5 -1 -79 -38 -165 -83z"/>
<path d="M390 705 c0 -3 63 -36 140 -75 77 -39 140 -68 140 -65 0 3 -63 36
-140 75 -77 39 -140 68 -140 65z"/>
<path d="M775 700 c3 -5 8 -10 11 -10 2 0 4 5 4 10 0 6 -5 10 -11 10 -5 0 -7
-4 -4 -10z"/>
<path d="M840 581 c57 -114 52 -128 -31 -86 -27 14 -49 23 -49 20 0 -3 36 -23
80 -45 44 -22 80 -38 80 -35 0 10 -120 245 -125 245 -3 0 17 -45 45 -99z"/>
</g>
</svg>
